%TF.GenerationSoftware,KiCad,Pcbnew,8.0.4*%
%TF.CreationDate,2024-08-09T14:18:10-05:00*%
%TF.ProjectId,Korry Switch,4b6f7272-7920-4537-9769-7463682e6b69,rev?*%
%TF.SameCoordinates,Original*%
%TF.FileFunction,Copper,L1,Top*%
%TF.FilePolarity,Positive*%
%FSLAX46Y46*%
G04 Gerber Fmt 4.6, Leading zero omitted, Abs format (unit mm)*
G04 Created by KiCad (PCBNEW 8.0.4) date 2024-08-09 14:18:10*
%MOMM*%
%LPD*%
G01*
G04 APERTURE LIST*
%TA.AperFunction,ComponentPad*%
%ADD10R,1.800000X1.800000*%
%TD*%
%TA.AperFunction,ComponentPad*%
%ADD11C,1.800000*%
%TD*%
%TA.AperFunction,ComponentPad*%
%ADD12O,1.600000X1.600000*%
%TD*%
%TA.AperFunction,ComponentPad*%
%ADD13C,1.600000*%
%TD*%
%TA.AperFunction,ComponentPad*%
%ADD14R,1.700000X1.700000*%
%TD*%
%TA.AperFunction,ComponentPad*%
%ADD15O,1.700000X1.700000*%
%TD*%
%TA.AperFunction,Conductor*%
%ADD16C,0.200000*%
%TD*%
G04 APERTURE END LIST*
D10*
%TO.P,SW1,1,1*%
%TO.N,Net-(J1-Pin_2)*%
X202500000Y-93000000D03*
D11*
%TO.P,SW1,2,2*%
%TO.N,Net-(D1-K)*%
X202500000Y-95500000D03*
%TO.P,SW1,3*%
%TO.N,N/C*%
X202500000Y-98000000D03*
%TO.P,SW1,4*%
X196500000Y-93000000D03*
%TO.P,SW1,5*%
X196500000Y-95500000D03*
%TO.P,SW1,6*%
X196500000Y-98000000D03*
%TD*%
D12*
%TO.P,R1,2*%
%TO.N,Net-(D1-A)*%
X206000000Y-101850000D03*
D13*
%TO.P,R1,1*%
%TO.N,Net-(J1-Pin_3)*%
X206000000Y-89150000D03*
%TD*%
D14*
%TO.P,J1,1,Pin_1*%
%TO.N,Net-(D1-K)*%
X191491677Y-91766512D03*
D15*
%TO.P,J1,2,Pin_2*%
%TO.N,Net-(J1-Pin_2)*%
X191491677Y-94306512D03*
%TO.P,J1,3,Pin_3*%
%TO.N,Net-(J1-Pin_3)*%
X191491677Y-96846512D03*
%TO.P,J1,4,Pin_4*%
%TO.N,Net-(J1-Pin_4)*%
X191491677Y-99386512D03*
%TD*%
D11*
%TO.P,D2,2,A*%
%TO.N,Net-(D2-A)*%
X201000000Y-89000000D03*
D10*
%TO.P,D2,1,K*%
%TO.N,Net-(D1-K)*%
X198460000Y-89000000D03*
%TD*%
D11*
%TO.P,D1,2,A*%
%TO.N,Net-(D1-A)*%
X201000000Y-102500000D03*
D10*
%TO.P,D1,1,K*%
%TO.N,Net-(D1-K)*%
X198460000Y-102500000D03*
%TD*%
D12*
%TO.P,R2,2*%
%TO.N,Net-(D2-A)*%
X194620916Y-89306029D03*
D13*
%TO.P,R2,1*%
%TO.N,Net-(J1-Pin_4)*%
X194620916Y-102006029D03*
%TD*%
D16*
%TO.N,Net-(D1-K)*%
X202500000Y-95500000D02*
X198460000Y-99540000D01*
X198460000Y-99540000D02*
X198460000Y-102500000D01*
X203500000Y-96500000D02*
X202500000Y-95500000D01*
X204000000Y-96000000D02*
X203500000Y-96500000D01*
X204000000Y-91000000D02*
X204000000Y-96000000D01*
X198460000Y-90100000D02*
X199360000Y-91000000D01*
X198460000Y-89000000D02*
X198460000Y-90100000D01*
X199360000Y-91000000D02*
X204000000Y-91000000D01*
X195693488Y-91766512D02*
X198460000Y-89000000D01*
X191491677Y-91766512D02*
X195693488Y-91766512D01*
%TO.N,Net-(J1-Pin_2)*%
X201200000Y-94300000D02*
X202500000Y-93000000D01*
X191498189Y-94300000D02*
X201200000Y-94300000D01*
X191491677Y-94306512D02*
X191498189Y-94300000D01*
%TO.N,Net-(D1-A)*%
X201650000Y-101850000D02*
X201000000Y-102500000D01*
X206000000Y-101850000D02*
X201650000Y-101850000D01*
%TO.N,Net-(J1-Pin_3)*%
X206850000Y-89150000D02*
X206000000Y-89150000D01*
X207500000Y-88500000D02*
X206850000Y-89150000D01*
X207900000Y-104100000D02*
X207900000Y-88900000D01*
X207600000Y-104400000D02*
X207900000Y-104100000D01*
X196500000Y-104400000D02*
X207600000Y-104400000D01*
X207900000Y-88900000D02*
X207500000Y-88500000D01*
X196500000Y-101854835D02*
X196500000Y-104400000D01*
X191491677Y-96846512D02*
X196500000Y-101854835D01*
%TO.N,Net-(D2-A)*%
X199800000Y-87800000D02*
X201000000Y-89000000D01*
X196126945Y-87800000D02*
X199800000Y-87800000D01*
X194620916Y-89306029D02*
X196126945Y-87800000D01*
X194806029Y-89306029D02*
X195000000Y-89500000D01*
%TO.N,Net-(J1-Pin_4)*%
X194500000Y-104000000D02*
X194500000Y-103500000D01*
X194500000Y-103500000D02*
X194620916Y-103379084D01*
X194620916Y-103379084D02*
X194620916Y-102006029D01*
X191500000Y-104000000D02*
X194500000Y-104000000D01*
X191491677Y-103991677D02*
X191500000Y-104000000D01*
X191491677Y-99386512D02*
X191491677Y-103991677D01*
%TD*%
M02*
