M48
; DRILL file {KiCad 8.0.4} date 2024-08-11T19:53:30-0500
; FORMAT={-:-/ absolute / inch / decimal}
; #@! TF.CreationDate,2024-08-11T19:53:30-05:00
; #@! TF.GenerationSoftware,Kicad,Pcbnew,8.0.4
; #@! TF.FileFunction,Plated,1,2,PTH
FMAT,2
INCH
; #@! TA.AperFunction,Plated,PTH,ComponentDrill
T1C0.0300
; #@! TA.AperFunction,Plated,PTH,ComponentDrill
T2C0.0394
%
G90
G05
T1
X4.6776Y-4.188
X4.6802Y-3.9627
X4.792Y-3.7687
X4.7923Y-4.3812
X4.9409Y-4.1142
X4.9852Y-3.6539
X4.9863Y-4.4931
X5.2105Y-3.6566
X5.2116Y-4.4957
X5.4045Y-3.7684
X5.4049Y-4.3809
X5.5167Y-4.1869
X5.5193Y-3.9616
T2
X4.5079Y-3.8976
X4.5079Y-3.9976
X4.5079Y-4.0976
X4.5079Y-4.1976
X4.5079Y-4.2976
X4.5079Y-4.3976
X5.689Y-3.8583
X5.689Y-3.9583
X5.689Y-4.0583
X5.689Y-4.1583
X5.689Y-4.2583
X5.689Y-4.3583
X5.689Y-4.4583
M30
