%TF.GenerationSoftware,KiCad,Pcbnew,8.0.4*%
%TF.CreationDate,2024-08-10T17:47:54-05:00*%
%TF.ProjectId,12 Position Rotary,31322050-6f73-4697-9469-6f6e20526f74,rev?*%
%TF.SameCoordinates,Original*%
%TF.FileFunction,Legend,Top*%
%TF.FilePolarity,Positive*%
%FSLAX46Y46*%
G04 Gerber Fmt 4.6, Leading zero omitted, Abs format (unit mm)*
G04 Created by KiCad (PCBNEW 8.0.4) date 2024-08-10 17:47:54*
%MOMM*%
%LPD*%
G01*
G04 APERTURE LIST*
%ADD10C,0.300000*%
%ADD11C,0.100000*%
%ADD12C,0.120000*%
G04 APERTURE END LIST*
D10*
X144697368Y-94300828D02*
X144411653Y-94300828D01*
X144411653Y-94300828D02*
X144268796Y-94372257D01*
X144268796Y-94372257D02*
X144197368Y-94443685D01*
X144197368Y-94443685D02*
X144054510Y-94657971D01*
X144054510Y-94657971D02*
X143983082Y-94943685D01*
X143983082Y-94943685D02*
X143983082Y-95515114D01*
X143983082Y-95515114D02*
X144054510Y-95657971D01*
X144054510Y-95657971D02*
X144125939Y-95729400D01*
X144125939Y-95729400D02*
X144268796Y-95800828D01*
X144268796Y-95800828D02*
X144554510Y-95800828D01*
X144554510Y-95800828D02*
X144697368Y-95729400D01*
X144697368Y-95729400D02*
X144768796Y-95657971D01*
X144768796Y-95657971D02*
X144840225Y-95515114D01*
X144840225Y-95515114D02*
X144840225Y-95157971D01*
X144840225Y-95157971D02*
X144768796Y-95015114D01*
X144768796Y-95015114D02*
X144697368Y-94943685D01*
X144697368Y-94943685D02*
X144554510Y-94872257D01*
X144554510Y-94872257D02*
X144268796Y-94872257D01*
X144268796Y-94872257D02*
X144125939Y-94943685D01*
X144125939Y-94943685D02*
X144054510Y-95015114D01*
X144054510Y-95015114D02*
X143983082Y-95157971D01*
X140197368Y-115300828D02*
X139911653Y-115300828D01*
X139911653Y-115300828D02*
X139768796Y-115372257D01*
X139768796Y-115372257D02*
X139697368Y-115443685D01*
X139697368Y-115443685D02*
X139554510Y-115657971D01*
X139554510Y-115657971D02*
X139483082Y-115943685D01*
X139483082Y-115943685D02*
X139483082Y-116515114D01*
X139483082Y-116515114D02*
X139554510Y-116657971D01*
X139554510Y-116657971D02*
X139625939Y-116729400D01*
X139625939Y-116729400D02*
X139768796Y-116800828D01*
X139768796Y-116800828D02*
X140054510Y-116800828D01*
X140054510Y-116800828D02*
X140197368Y-116729400D01*
X140197368Y-116729400D02*
X140268796Y-116657971D01*
X140268796Y-116657971D02*
X140340225Y-116515114D01*
X140340225Y-116515114D02*
X140340225Y-116157971D01*
X140340225Y-116157971D02*
X140268796Y-116015114D01*
X140268796Y-116015114D02*
X140197368Y-115943685D01*
X140197368Y-115943685D02*
X140054510Y-115872257D01*
X140054510Y-115872257D02*
X139768796Y-115872257D01*
X139768796Y-115872257D02*
X139625939Y-115943685D01*
X139625939Y-115943685D02*
X139554510Y-116015114D01*
X139554510Y-116015114D02*
X139483082Y-116157971D01*
X140983081Y-116229400D02*
X142125939Y-116229400D01*
X143625939Y-116800828D02*
X142768796Y-116800828D01*
X143197367Y-116800828D02*
X143197367Y-115300828D01*
X143197367Y-115300828D02*
X143054510Y-115515114D01*
X143054510Y-115515114D02*
X142911653Y-115657971D01*
X142911653Y-115657971D02*
X142768796Y-115729400D01*
X144197367Y-115443685D02*
X144268795Y-115372257D01*
X144268795Y-115372257D02*
X144411653Y-115300828D01*
X144411653Y-115300828D02*
X144768795Y-115300828D01*
X144768795Y-115300828D02*
X144911653Y-115372257D01*
X144911653Y-115372257D02*
X144983081Y-115443685D01*
X144983081Y-115443685D02*
X145054510Y-115586542D01*
X145054510Y-115586542D02*
X145054510Y-115729400D01*
X145054510Y-115729400D02*
X144983081Y-115943685D01*
X144983081Y-115943685D02*
X144125938Y-116800828D01*
X144125938Y-116800828D02*
X145054510Y-116800828D01*
X113840225Y-116800828D02*
X112983082Y-116800828D01*
X113411653Y-116800828D02*
X113411653Y-115300828D01*
X113411653Y-115300828D02*
X113268796Y-115515114D01*
X113268796Y-115515114D02*
X113125939Y-115657971D01*
X113125939Y-115657971D02*
X112983082Y-115729400D01*
X114483081Y-116229400D02*
X115625939Y-116229400D01*
X117054510Y-115300828D02*
X116340224Y-115300828D01*
X116340224Y-115300828D02*
X116268796Y-116015114D01*
X116268796Y-116015114D02*
X116340224Y-115943685D01*
X116340224Y-115943685D02*
X116483082Y-115872257D01*
X116483082Y-115872257D02*
X116840224Y-115872257D01*
X116840224Y-115872257D02*
X116983082Y-115943685D01*
X116983082Y-115943685D02*
X117054510Y-116015114D01*
X117054510Y-116015114D02*
X117125939Y-116157971D01*
X117125939Y-116157971D02*
X117125939Y-116515114D01*
X117125939Y-116515114D02*
X117054510Y-116657971D01*
X117054510Y-116657971D02*
X116983082Y-116729400D01*
X116983082Y-116729400D02*
X116840224Y-116800828D01*
X116840224Y-116800828D02*
X116483082Y-116800828D01*
X116483082Y-116800828D02*
X116340224Y-116729400D01*
X116340224Y-116729400D02*
X116268796Y-116657971D01*
X113840225Y-94957341D02*
X113697368Y-94885912D01*
X113697368Y-94885912D02*
X113483082Y-94885912D01*
X113483082Y-94885912D02*
X113268796Y-94957341D01*
X113268796Y-94957341D02*
X113125939Y-95100198D01*
X113125939Y-95100198D02*
X113054510Y-95243055D01*
X113054510Y-95243055D02*
X112983082Y-95528769D01*
X112983082Y-95528769D02*
X112983082Y-95743055D01*
X112983082Y-95743055D02*
X113054510Y-96028769D01*
X113054510Y-96028769D02*
X113125939Y-96171626D01*
X113125939Y-96171626D02*
X113268796Y-96314484D01*
X113268796Y-96314484D02*
X113483082Y-96385912D01*
X113483082Y-96385912D02*
X113625939Y-96385912D01*
X113625939Y-96385912D02*
X113840225Y-96314484D01*
X113840225Y-96314484D02*
X113911653Y-96243055D01*
X113911653Y-96243055D02*
X113911653Y-95743055D01*
X113911653Y-95743055D02*
X113625939Y-95743055D01*
X114554510Y-96385912D02*
X114554510Y-94885912D01*
X114554510Y-94885912D02*
X115411653Y-96385912D01*
X115411653Y-96385912D02*
X115411653Y-94885912D01*
X116125939Y-96385912D02*
X116125939Y-94885912D01*
X116125939Y-94885912D02*
X116483082Y-94885912D01*
X116483082Y-94885912D02*
X116697368Y-94957341D01*
X116697368Y-94957341D02*
X116840225Y-95100198D01*
X116840225Y-95100198D02*
X116911654Y-95243055D01*
X116911654Y-95243055D02*
X116983082Y-95528769D01*
X116983082Y-95528769D02*
X116983082Y-95743055D01*
X116983082Y-95743055D02*
X116911654Y-96028769D01*
X116911654Y-96028769D02*
X116840225Y-96171626D01*
X116840225Y-96171626D02*
X116697368Y-96314484D01*
X116697368Y-96314484D02*
X116483082Y-96385912D01*
X116483082Y-96385912D02*
X116125939Y-96385912D01*
X122340225Y-98800828D02*
X121483082Y-98800828D01*
X121911653Y-98800828D02*
X121911653Y-97300828D01*
X121911653Y-97300828D02*
X121768796Y-97515114D01*
X121768796Y-97515114D02*
X121625939Y-97657971D01*
X121625939Y-97657971D02*
X121483082Y-97729400D01*
X122911653Y-97443685D02*
X122983081Y-97372257D01*
X122983081Y-97372257D02*
X123125939Y-97300828D01*
X123125939Y-97300828D02*
X123483081Y-97300828D01*
X123483081Y-97300828D02*
X123625939Y-97372257D01*
X123625939Y-97372257D02*
X123697367Y-97443685D01*
X123697367Y-97443685D02*
X123768796Y-97586542D01*
X123768796Y-97586542D02*
X123768796Y-97729400D01*
X123768796Y-97729400D02*
X123697367Y-97943685D01*
X123697367Y-97943685D02*
X122840224Y-98800828D01*
X122840224Y-98800828D02*
X123768796Y-98800828D01*
X120840225Y-102800828D02*
X119983082Y-102800828D01*
X120411653Y-102800828D02*
X120411653Y-101300828D01*
X120411653Y-101300828D02*
X120268796Y-101515114D01*
X120268796Y-101515114D02*
X120125939Y-101657971D01*
X120125939Y-101657971D02*
X119983082Y-101729400D01*
X124340225Y-106372257D02*
X124197368Y-106300828D01*
X124197368Y-106300828D02*
X123983082Y-106300828D01*
X123983082Y-106300828D02*
X123768796Y-106372257D01*
X123768796Y-106372257D02*
X123625939Y-106515114D01*
X123625939Y-106515114D02*
X123554510Y-106657971D01*
X123554510Y-106657971D02*
X123483082Y-106943685D01*
X123483082Y-106943685D02*
X123483082Y-107157971D01*
X123483082Y-107157971D02*
X123554510Y-107443685D01*
X123554510Y-107443685D02*
X123625939Y-107586542D01*
X123625939Y-107586542D02*
X123768796Y-107729400D01*
X123768796Y-107729400D02*
X123983082Y-107800828D01*
X123983082Y-107800828D02*
X124125939Y-107800828D01*
X124125939Y-107800828D02*
X124340225Y-107729400D01*
X124340225Y-107729400D02*
X124411653Y-107657971D01*
X124411653Y-107657971D02*
X124411653Y-107157971D01*
X124411653Y-107157971D02*
X124125939Y-107157971D01*
X125054510Y-107800828D02*
X125054510Y-106300828D01*
X125054510Y-106300828D02*
X125911653Y-107800828D01*
X125911653Y-107800828D02*
X125911653Y-106300828D01*
X126625939Y-107800828D02*
X126625939Y-106300828D01*
X126625939Y-106300828D02*
X126983082Y-106300828D01*
X126983082Y-106300828D02*
X127197368Y-106372257D01*
X127197368Y-106372257D02*
X127340225Y-106515114D01*
X127340225Y-106515114D02*
X127411654Y-106657971D01*
X127411654Y-106657971D02*
X127483082Y-106943685D01*
X127483082Y-106943685D02*
X127483082Y-107157971D01*
X127483082Y-107157971D02*
X127411654Y-107443685D01*
X127411654Y-107443685D02*
X127340225Y-107586542D01*
X127340225Y-107586542D02*
X127197368Y-107729400D01*
X127197368Y-107729400D02*
X126983082Y-107800828D01*
X126983082Y-107800828D02*
X126625939Y-107800828D01*
D11*
%TO.C,SW1*%
X140500000Y-103500000D02*
G75*
G02*
X118500000Y-103500000I-11000000J0D01*
G01*
X118500000Y-103500000D02*
G75*
G02*
X140500000Y-103500000I11000000J0D01*
G01*
D12*
%TO.C,J2*%
X143170000Y-99270000D02*
X143170000Y-114570000D01*
X143170000Y-99270000D02*
X145830000Y-99270000D01*
X143170000Y-114570000D02*
X145830000Y-114570000D01*
X144500000Y-96670000D02*
X145830000Y-96670000D01*
X145830000Y-96670000D02*
X145830000Y-98000000D01*
X145830000Y-99270000D02*
X145830000Y-114570000D01*
%TO.C,J1*%
X113170000Y-100270000D02*
X113170000Y-113030000D01*
X113170000Y-100270000D02*
X115830000Y-100270000D01*
X113170000Y-113030000D02*
X115830000Y-113030000D01*
X114500000Y-97670000D02*
X115830000Y-97670000D01*
X115830000Y-97670000D02*
X115830000Y-99000000D01*
X115830000Y-100270000D02*
X115830000Y-113030000D01*
%TD*%
M02*
