%TF.GenerationSoftware,KiCad,Pcbnew,8.0.4*%
%TF.CreationDate,2024-08-10T17:47:54-05:00*%
%TF.ProjectId,12 Position Rotary,31322050-6f73-4697-9469-6f6e20526f74,rev?*%
%TF.SameCoordinates,Original*%
%TF.FileFunction,Copper,L1,Top*%
%TF.FilePolarity,Positive*%
%FSLAX46Y46*%
G04 Gerber Fmt 4.6, Leading zero omitted, Abs format (unit mm)*
G04 Created by KiCad (PCBNEW 8.0.4) date 2024-08-10 17:47:54*
%MOMM*%
%LPD*%
G01*
G04 APERTURE LIST*
%TA.AperFunction,ComponentPad*%
%ADD10C,1.524000*%
%TD*%
%TA.AperFunction,ComponentPad*%
%ADD11R,1.700000X1.700000*%
%TD*%
%TA.AperFunction,ComponentPad*%
%ADD12O,1.700000X1.700000*%
%TD*%
%TA.AperFunction,Conductor*%
%ADD13C,0.200000*%
%TD*%
G04 APERTURE END LIST*
D10*
%TO.P,SW1,13*%
%TO.N,Net-(J1-Pin_1)*%
X125500000Y-104500000D03*
%TO.P,SW1,1,1*%
%TO.N,Net-(J1-Pin_2)*%
X118876429Y-100652647D03*
%TO.P,SW1,12,12*%
%TO.N,Net-(J2-Pin_7)*%
X121716514Y-95725336D03*
%TO.P,SW1,11,11*%
%TO.N,Net-(J2-Pin_6)*%
X126624978Y-92810174D03*
%TO.P,SW1,10,10*%
%TO.N,Net-(J2-Pin_5)*%
X132347353Y-92876429D03*
%TO.P,SW1,9,9*%
%TO.N,Net-(J2-Pin_4)*%
X137274664Y-95716514D03*
%TO.P,SW1,8,8*%
%TO.N,Net-(J2-Pin_3)*%
X140189826Y-100624978D03*
%TO.P,SW1,7,7*%
%TO.N,Net-(J2-Pin_2)*%
X140123571Y-106347353D03*
%TO.P,SW1,6,6*%
%TO.N,Net-(J2-Pin_1)*%
X137283486Y-111274664D03*
%TO.P,SW1,5,5*%
%TO.N,Net-(J1-Pin_6)*%
X132375022Y-114189826D03*
%TO.P,SW1,4,4*%
%TO.N,Net-(J1-Pin_5)*%
X126652647Y-114123571D03*
%TO.P,SW1,3,3*%
%TO.N,Net-(J1-Pin_4)*%
X121725336Y-111283486D03*
%TO.P,SW1,2,2*%
%TO.N,Net-(J1-Pin_3)*%
X118810174Y-106375022D03*
%TD*%
D11*
%TO.P,J2,1,Pin_1*%
%TO.N,Net-(J2-Pin_1)*%
X144500000Y-98000000D03*
D12*
%TO.P,J2,2,Pin_2*%
%TO.N,Net-(J2-Pin_2)*%
X144500000Y-100540000D03*
%TO.P,J2,3,Pin_3*%
%TO.N,Net-(J2-Pin_3)*%
X144500000Y-103080000D03*
%TO.P,J2,4,Pin_4*%
%TO.N,Net-(J2-Pin_4)*%
X144500000Y-105620000D03*
%TO.P,J2,5,Pin_5*%
%TO.N,Net-(J2-Pin_5)*%
X144500000Y-108160000D03*
%TO.P,J2,6,Pin_6*%
%TO.N,Net-(J2-Pin_6)*%
X144500000Y-110700000D03*
%TO.P,J2,7,Pin_7*%
%TO.N,Net-(J2-Pin_7)*%
X144500000Y-113240000D03*
%TD*%
D11*
%TO.P,J1,1,Pin_1*%
%TO.N,Net-(J1-Pin_1)*%
X114500000Y-99000000D03*
D12*
%TO.P,J1,2,Pin_2*%
%TO.N,Net-(J1-Pin_2)*%
X114500000Y-101540000D03*
%TO.P,J1,3,Pin_3*%
%TO.N,Net-(J1-Pin_3)*%
X114500000Y-104080000D03*
%TO.P,J1,4,Pin_4*%
%TO.N,Net-(J1-Pin_4)*%
X114500000Y-106620000D03*
%TO.P,J1,5,Pin_5*%
%TO.N,Net-(J1-Pin_5)*%
X114500000Y-109160000D03*
%TO.P,J1,6,Pin_6*%
%TO.N,Net-(J1-Pin_6)*%
X114500000Y-111700000D03*
%TD*%
D13*
%TO.N,Net-(J1-Pin_6)*%
X131379277Y-115185571D02*
X132375022Y-114189826D01*
X118500000Y-114500000D02*
X119185571Y-115185571D01*
X117300000Y-114500000D02*
X118500000Y-114500000D01*
X114500000Y-111700000D02*
X117300000Y-114500000D01*
X119185571Y-115185571D02*
X131379277Y-115185571D01*
%TO.N,Net-(J2-Pin_7)*%
X123236053Y-95725336D02*
X121716514Y-95725336D01*
X140750717Y-113240000D02*
X123236053Y-95725336D01*
X144500000Y-113240000D02*
X140750717Y-113240000D01*
%TO.N,Net-(J2-Pin_6)*%
X126624978Y-97190664D02*
X126624978Y-92810174D01*
X140134314Y-110700000D02*
X126624978Y-97190664D01*
X144500000Y-110700000D02*
X140134314Y-110700000D01*
%TO.N,Net-(J2-Pin_5)*%
X139010000Y-109010000D02*
X132347353Y-102347353D01*
X143650000Y-109010000D02*
X139010000Y-109010000D01*
X132347353Y-102347353D02*
X132347353Y-92876429D01*
X144500000Y-108160000D02*
X143650000Y-109010000D01*
%TO.N,Net-(J2-Pin_4)*%
X138809353Y-107809353D02*
X137274664Y-106274664D01*
X142310647Y-107809353D02*
X138809353Y-107809353D01*
X144500000Y-105620000D02*
X142310647Y-107809353D01*
X137274664Y-106274664D02*
X137274664Y-95716514D01*
%TO.N,Net-(J2-Pin_3)*%
X139061571Y-101753233D02*
X140189826Y-100624978D01*
X139409353Y-107409353D02*
X139061571Y-107061571D01*
X140563466Y-107409353D02*
X139409353Y-107409353D01*
X144500000Y-103472819D02*
X140563466Y-107409353D01*
X139061571Y-107061571D02*
X139061571Y-101753233D01*
X144500000Y-103080000D02*
X144500000Y-103472819D01*
%TO.N,Net-(J2-Pin_2)*%
X140123571Y-104916429D02*
X140123571Y-106347353D01*
X144500000Y-100540000D02*
X140123571Y-104916429D01*
%TO.N,Net-(J2-Pin_1)*%
X140508822Y-114500000D02*
X137283486Y-111274664D01*
X144866346Y-114500000D02*
X140508822Y-114500000D01*
X145650000Y-99150000D02*
X145650000Y-113716346D01*
X145650000Y-113716346D02*
X144866346Y-114500000D01*
X144500000Y-98000000D02*
X145650000Y-99150000D01*
%TO.N,Net-(J1-Pin_5)*%
X119463571Y-114123571D02*
X126652647Y-114123571D01*
X114500000Y-109160000D02*
X119463571Y-114123571D01*
%TO.N,Net-(J1-Pin_4)*%
X117061850Y-106620000D02*
X121725336Y-111283486D01*
X114500000Y-106620000D02*
X117061850Y-106620000D01*
%TO.N,Net-(J1-Pin_3)*%
X116515152Y-104080000D02*
X118810174Y-106375022D01*
X114500000Y-104080000D02*
X116515152Y-104080000D01*
%TO.N,Net-(J1-Pin_2)*%
X115387353Y-100652647D02*
X114500000Y-101540000D01*
X118876429Y-100652647D02*
X115387353Y-100652647D01*
%TO.N,Net-(J1-Pin_1)*%
X120000000Y-99000000D02*
X125500000Y-104500000D01*
X114500000Y-99000000D02*
X120000000Y-99000000D01*
%TD*%
M02*
